<svg xmlns="http://www.w3.org/2000/svg" viewBox="0 0 200 200" style="enable-background:new 0 0 200 200" xml:space="preserve"><path d="M157.2 76.1c-.9.7-16.2 9.3-16.2 28.6 0 22.3 19.5 30.1 20.1 30.3-.1.5-3.1 10.8-10.3 21.3-6.4 9.2-13.1 18.5-23.3 18.5s-12.8-5.9-24.6-5.9c-11.5 0-15.6 6.1-24.9 6.1s-15.8-8.6-23.3-19.1C46 143.6 39 124.4 39 106.2 39 77 58 61.6 76.6 61.6c9.9 0 18.2 6.5 24.4 6.5 5.9 0 15.2-6.9 26.4-6.9 4.3.1 19.7.4 29.8 14.9zm-35.1-27.2c4.7-5.5 8-13.2 8-20.9 0-1.1-.1-2.1-.3-3-7.6.3-16.6 5.1-22.1 11.4-4.3 4.9-8.3 12.5-8.3 20.3 0 1.2.2 2.3.3 2.7.5.1 1.3.2 2 .2 6.8 0 15.4-4.6 20.4-10.7z"/></svg>