<svg xmlns="http://www.w3.org/2000/svg" viewBox="0 0 200 200"><path fill-rule="evenodd" d="m123.2 51.1-33.1 52.1H54.3l8.1-12.9h22.4l8.1-12.9H43.1L35 90.3h12l-16.2 25.8h66.9l25.5-40.6 9.2 14.8h-8.1l-8.1 12.9h24.3l8.1 12.9H164l-40.8-65zm-10.9.5H59.4l-8.2 12.9h52.9l8.2-12.9z" clip-rule="evenodd"/><path fill="#222" fill-rule="evenodd" stroke="#222" stroke-miterlimit="2.613" stroke-width="1.368" d="M45.1 127.1v3.6h3.6V129c0-4.5-1.7-5.6-6.2-5.6h-7.3c-4.5 0-5.9 1.4-5.9 6.2v2.2c0 4.8 1.4 5.9 5.9 5.9H45v7.6H33.3v-3.9h-3.9v1.7c0 4.5 1.4 5.9 5.9 5.9h7.8c4.5 0 5.9-1.4 5.9-5.9V140c0-4.5-1.4-5.9-5.9-5.9h-9.8v-7h11.8zm91.5 0h8.7v-3.7H124v3.7h8.4v21.8h4.2v-21.8zm26.9 0v3.6h3.6V129c0-4.5-1.7-5.6-5.9-5.6H154c-4.8 0-5.9 1.4-5.9 6.2v2.2c0 4.8 1.1 5.9 5.9 5.9h9.8v7.6h-12.9v-3.9H147v1.7c0 4.5 1.4 5.9 5.9 5.9h8.7c4.8 0 5.9-1.4 5.9-5.9V140c0-4.5-1.1-5.9-5.9-5.9h-9.8v-7h11.7z" clip-rule="evenodd"/><path fill="#222" fill-rule="evenodd" stroke="#222" stroke-miterlimit="10" d="M52.6 148.9h4.2v-9.8h10.1c3.6 0 5.3-1.4 5.3-5v-5.6c0-3.6-1.7-5-5.3-5H52.6v25.4zm12.6-22.1c2 0 2.8.6 2.8 2.5v3.6c0 2.2-.8 2.8-2.8 2.8h-8.4v-9h8.4v.1z" clip-rule="evenodd"/><path fill="#222" stroke="#222" stroke-miterlimit="2.613" stroke-width="1.368" d="M52.6 148.9h4.2v-9.8h10.1c3.6 0 5.3-1.4 5.3-5v-5.6c0-3.6-1.7-5-5.3-5H52.6v25.4zm12.6-22.1c2 0 2.8.6 2.8 2.5v3.6c0 2.2-.8 2.8-2.8 2.8h-8.4v-9h8.4v.1z"/><path fill="#222" fill-rule="evenodd" stroke="#222" stroke-miterlimit="10" d="M75.6 129.6v13.5c0 4.5 1.4 5.9 5.9 5.9h10.4c4.5 0 5.9-1.4 5.9-5.9v-13.5c0-4.8-1.4-6.2-5.9-6.2H81.5c-4.5 0-5.9 1.4-5.9 6.2zm4.2 15.7v-18.5h13.7v18.5H79.8z" clip-rule="evenodd"/><path fill="#222" stroke="#222" stroke-miterlimit="2.613" stroke-width="1.368" d="M75.6 129.6v13.5c0 4.5 1.4 5.9 5.9 5.9h10.4c4.5 0 5.9-1.4 5.9-5.9v-13.5c0-4.8-1.4-6.2-5.9-6.2H81.5c-4.5 0-5.9 1.4-5.9 6.2zm4.2 15.7v-18.5h13.7v18.5H79.8z"/><path fill="#222" fill-rule="evenodd" stroke="#222" stroke-miterlimit="10" d="M101.6 148.9h4.5v-9.8h1.1l10.4 9.8h6.4l-11.8-9.8h3.9c3.6 0 5.3-1.4 5.3-5v-5.6c0-3.6-1.7-5-5.3-5h-14.6v25.4h.1zm12.9-22.1c1.7 0 2.5.6 2.5 2.5v3.9c0 2-.8 2.5-2.5 2.5h-8.4v-9h8.4v.1z" clip-rule="evenodd"/><path fill="#222" stroke="#222" stroke-miterlimit="2.613" stroke-width="1.368" d="M101.6 148.9h4.5v-9.8h1.1l10.4 9.8h6.4l-11.8-9.8h3.9c3.6 0 5.3-1.4 5.3-5v-5.6c0-3.6-1.7-5-5.3-5h-14.6v25.4h.1zm12.9-22.1c1.7 0 2.5.6 2.5 2.5v3.9c0 2-.8 2.5-2.5 2.5h-8.4v-9h8.4v.1z"/><path fill="#222" fill-rule="evenodd" d="M171.3 128.2h-1.1V124h-1.1v-1.1h3.3v1.1h-1.1v4.2zm5.6-3.1-1.1 3.4h-.6l-1.1-3.4-.5 3.1h-1.2l.9-5.3h.8l1.4 3.3 1.4-3.3h.9l.8 5.3h-1.1l-.6-3.1z" clip-rule="evenodd"/></svg>