<?xml version="1.0" encoding="utf-8"?>
<!-- Generator: Adobe Illustrator 23.0.2, SVG Export Plug-In . SVG Version: 6.00 Build 0)  -->
<svg version="1.1"
	 id="svg2" xmlns:cc="http://creativecommons.org/ns#" xmlns:dc="http://purl.org/dc/elements/1.1/" xmlns:rdf="http://www.w3.org/1999/02/22-rdf-syntax-ns#" xmlns:svg="http://www.w3.org/2000/svg"
	 xmlns="http://www.w3.org/2000/svg" xmlns:xlink="http://www.w3.org/1999/xlink" x="0px" y="0px" viewBox="0 0 872 559.6"
	 style="enable-background:new 0 0 872 559.6;" xml:space="preserve">
<g id="layer1" transform="translate(146.39782,-476.27972)">
	<path id="path3014" d="M281.1,930.7c0-0.2,8-22.2,17.7-48.9l17.7-48.6l27-0.4l27-0.4l4.6-2.3c9.2-4.5,8.4-2.8,31.4-65.9
		c16.7-45.8,20.7-57.6,21-61.6c0.6-9.8-3.7-17-12.8-21.2l-4.5-2.1h-37.6h-37.6l-44.9,123c-24.6,67.7-45,123.2-45.1,123.4
		c-0.2,0.2-4-0.8-8.5-2.2C171,904,122.8,848.3,112.9,780.5c-1.9-13-1.9-36.3,0-49.2c9.2-63.5,52.4-117,112.6-139.3
		c9.9-3.6,13.1-4.5,12.6-2.8c-4.6,11.9-88.1,242.1-88.1,242.8c0,0.6,5,1,18.5,1h18.5l21.1-57.7c11.6-31.8,22.3-61.1,23.8-65.2
		l2.8-7.5h13.8c12.8,0,13.7,0.1,13.2,1.5c-2.4,5.7-46.7,127.7-46.7,128.2c0,0.3,8.3,0.6,18.5,0.6h18.5l22.8-63
		c21.7-59.6,22.9-63.3,22.9-68.7c0-7-2.2-12.1-7-16.1c-5.8-4.9-8.6-5.5-29.2-5.9c-10.1-0.2-18.4-0.6-18.4-0.9
		c0-0.3,7.9-22.2,17.7-48.7l17.6-48.2l11.9,0.2c75.9,1,143.5,53.3,164.2,127c4.7,16.7,6.1,27.2,6.1,47.4c0,20.2-1.4,30.6-6.1,47.4
		c-18.5,65.9-74.8,115.4-142.6,125.5C303.7,929.9,281.1,931.4,281.1,930.7L281.1,930.7z M325.7,808.7c0-0.3,8.7-24.3,19.3-53.3
		l19.2-52.7l13.5-0.2c7.5-0.2,13.5,0.1,13.6,0.4c0,0.3-8.7,24.4-19.3,53.5l-19.3,52.8h-13.6C331.8,809.3,325.7,809,325.7,808.7
		L325.7,808.7z"/>
</g>
</svg>
