<?xml version="1.0" encoding="utf-8"?>
<!-- Generator: Adobe Illustrator 18.1.1, SVG Export Plug-In . SVG Version: 6.00 Build 0)  -->
<svg version="1.1" id="Layer_1" xmlns="http://www.w3.org/2000/svg" xmlns:xlink="http://www.w3.org/1999/xlink" x="0px" y="0px"
	 viewBox="0 0 100 39.2" enable-background="new 0 0 100 39.2" xml:space="preserve" preserveAspectRatio="xMinYMin">
<g>
	<g>
		<defs>
			<rect id="SVGID_1_" y="0" width="100" height="39.2"/>
		</defs>
		<clipPath id="SVGID_2_">
			<use xlink:href="#SVGID_1_"  overflow="visible"/>
		</clipPath>
		<path clip-path="url(#SVGID_2_)" fill="#000000" d="M18.9,29.8c-0.7,0.8-1.7,2-1.5,2.9c0,0,0,0,0,0c0.2,0.7,1.2,1.2,1.2,1.2
			l2.2,1.2l-1.4,1.2l1.7,0.5c0,0-1.6,1.6-1.7,1.8c-0.4,0.1-0.9,0.1-1.4,0.1c-3.6,0-8.6-2.1-9.8-2.1c-1.5,0-3.4,0.8-3.4,0.8l1-1.1
			c0,0-1.3,0.3-2.5,0.2L5,35.3c-1.5,0-2.9-0.5-3.5-1c0,0,2.8-0.2,6.7-0.2c1.6,0,4.2,0.2,4.2,0.2c-1.3-0.6-2.5-1.3-3-2.6l2.5,0.4
			c-1-0.6-2.6-2.2-2.8-3.5l2.8,1c-0.5-0.5-2.2-2.1-2.5-4l2.2,1.4c-0.6-0.6-2.1-3.6-1.9-4.5l2,1.4c-1-1.2-2.1-4.4-1.3-5.7
			c0.6,2.4,2,3.3,2,3.3c-0.9-1.3-2.9-6-1-8c0.5,4.6,2.5,6.2,2.5,6.2c-1.6-2.6-3.5-10.6,0-12.2c-0.7,5.1,1,7.9,1,7.9
			c-1-4.7-1-11.4,2.5-12c-1.7,5-0.5,8.9-0.5,8.9C16.3,0.5,20.1,0.7,20.1,0.7S19.5,4,19.5,10v17.2C19.5,28.5,19.4,29.2,18.9,29.8
			L18.9,29.8z M21.2,34c1.5,0.1,2.6,0.2,3.7,0.4c0.4,0.1,0.6,0.5,0.6,0.8c-0.5-0.1-1.3-0.2-1.3-0.2l0,0.5c0,0,0.7-0.2,1.5-0.2
			c0,0,1.6,0,1.5,1.1c-0.4-0.3-1.3-0.2-1.6-0.1c-0.8,0.1-1.6,0.5-2.4,1c-0.8,0.4-1.7,0.9-2.7,1.2c0.4-0.4,1.6-1.7,1.6-1.7L20.5,36
			l1.3-1.1l-2-1.1C20.3,33.9,20.7,33.9,21.2,34L21.2,34z M21.3,32.2h7.1V8.9h-6.5v14.5l-1.9-1.8V10c0-6.8,0.8-10,0.8-10
			c-2.2,0-3.3,2.1-3.6,2.7C16,2.8,15,3.5,14.4,4.9c-0.4,0.8-0.6,1.5-0.6,1.9c-2.6,0.6-2.8,5.2-2.6,6l-4-3.9H0v23.3h6.5V18.1
			c0,0,3.1,3,3.1,3c0.3,0.8,0.6,1.2,0.6,1.2l-1.2-1.1c-0.2,2.3,0.4,3.5,1,4.3l-1.5-1.3c-0.1,2.3,1,3.7,1.7,4.3l-2-1
			c-0.1,1.4,1.2,3.3,2,3.7l-1.7-0.2c0.4,1.9,1.7,2.5,1.7,2.5S7.3,33.6,6,33.6c-3.6,0-6,0.3-6,0.3s1.6,1.6,3.7,1.7l-1.8,1.1
			C3.2,37.2,4.4,37,4.4,37l-1.1,1.3c0,0,3.3-1.3,4.7-1.2c1.1,0.1,6.3,2.1,9.8,2.1c2.4,0,4.1-0.9,5.4-1.6c0.8-0.4,1.6-0.8,2.3-0.9
			c1.3-0.2,1.8,0.3,1.8,0.3c0.1-0.5,0.5-1.9-1.5-2.2c-0.1-0.4-0.4-0.8-1-0.9c-1.1-0.2-5.8-0.5-5.9-0.5c-0.4,0-1.7-0.3-0.5-2.1
			c0.1-0.1,0.7-0.9,0.7-0.9L21.3,32.2"/>
	</g>
	<path fill="#000000" d="M57,17c0.5,0,1,0.4,1,0.9c0,0.5-0.5,0.9-1,0.9c-0.5,0-1-0.4-1-0.9C56,17.4,56.4,17,57,17"/>
	<path fill="#000000" d="M82.4,17c0.5,0,1,0.4,1,0.9c0,0.5-0.5,0.9-1,0.9c-0.5,0-1-0.4-1-0.9C81.4,17.4,81.8,17,82.4,17"/>
	<path fill="#000000" d="M50.1,21.9v3.5h-1.5v-0.6c-0.4,0.4-0.9,0.7-1.7,0.7c-1.2,0-2.2-0.7-2.2-1.8c0-1.7,1.8-2.1,3.6-2.1h0.2
		c0-0.5-0.2-0.9-1.1-0.9c-0.6,0-1.2,0.2-1.6,0.6l-0.9-0.9c0.6-0.6,1.5-1,2.5-1c1,0,1.5,0.1,2.1,0.6C50,20.6,50.1,21.4,50.1,21.9
		 M48.5,22.9h-0.1c-0.3,0-0.9,0-1.4,0.2c-0.3,0.1-0.6,0.3-0.6,0.6c0,0.4,0.4,0.6,0.8,0.6c0.8,0,1.3-0.5,1.3-1.2V22.9"/>
	<path fill="#000000" d="M53.5,19.6v-1.8h-1.7v1.8h-1.1V21h1.1v2.5c0,0.8,0.1,1.3,0.5,1.7c0.3,0.3,0.8,0.5,1.5,0.5
		c0.4,0,0.9-0.1,1.2-0.2V24c-0.2,0.1-0.5,0.1-0.9,0.1c-0.5,0-0.6-0.3-0.6-0.8V21h1.5v-1.4H53.5"/>
	<path fill="#000000" d="M97.4,22.6v0.4h-4.3c0,0.6,0.7,1.1,1.5,1.1c0.7,0,1.1-0.3,1.5-0.7l1.1,0.8c-0.6,0.8-1.4,1.3-2.6,1.3
		c-1.8,0-3.2-1.1-3.2-3.1c0-1.6,1-3.1,3-3.1C96.6,19.5,97.4,21.1,97.4,22.6 M95.6,21.9c-0.1-0.6-0.4-1.1-1.3-1.1
		c-0.7,0-1.2,0.5-1.3,1.1H95.6"/>
	<polyline fill="#000000" points="41.9,17 41.9,22.7 38.3,17 36.1,17 36.1,25.4 37.9,25.4 37.9,19.5 41.6,25.4 43.7,25.4 43.7,17 
		41.9,17 	"/>
	<polyline fill="#000000" points="79.2,19.6 78.2,23.2 77.3,19.6 75.6,19.6 74.7,23.2 73.7,19.6 71.9,19.6 73.7,25.4 75.4,25.4 
		76.4,21.8 77.5,25.4 79.1,25.4 81,19.6 79.2,19.6 	"/>
	<rect x="56.1" y="19.6" fill="#000000" width="1.7" height="5.8"/>
	<rect x="81.5" y="19.6" fill="#000000" width="1.7" height="5.8"/>
	<path fill="#000000" d="M70.8,20c-0.4-0.4-0.8-0.5-1.4-0.5c-0.6,0-1.4,0.3-1.7,0.8v-0.6h-1.6v5.8h1.7v-3.2c0-0.4,0.1-0.7,0.3-0.9
		c0.2-0.2,0.4-0.3,0.7-0.3c0.4,0,0.6,0.1,0.7,0.3c0.2,0.2,0.2,0.6,0.2,1.2v3h1.7v-3.6C71.4,21.1,71.3,20.5,70.8,20"/>
	<path fill="#000000" d="M90.5,17v8.5h-1.6v-0.6c-0.4,0.4-1,0.8-1.8,0.8c-0.8,0-1.5-0.3-2-0.8c-0.6-0.6-0.9-1.4-0.9-2.3
		c0-1.8,1.2-3.1,2.8-3.1c0.7,0,1.3,0.2,1.8,0.7V17H90.5L90.5,17z M88.8,22.5c0-0.8-0.5-1.6-1.5-1.6c-1,0-1.5,0.8-1.5,1.6
		c0,0.8,0.5,1.6,1.5,1.6C88.3,24.1,88.8,23.3,88.8,22.5"/>
	<path fill="#000000" d="M65.1,22.5c0,1.8-1.3,3.1-3.2,3.1c-1.8,0-3.2-1.3-3.2-3.1c0-1.8,1.3-3.1,3.2-3.1
		C63.8,19.5,65.1,20.7,65.1,22.5 M61.9,20.9c-1,0-1.5,0.8-1.5,1.6c0,0.8,0.5,1.6,1.5,1.6c1,0,1.5-0.8,1.5-1.6
		C63.4,21.7,62.9,20.9,61.9,20.9"/>
	<path fill="#000000" d="M98.2,19h0.3v-0.6h0.2L99,19h0.3l-0.4-0.6c0.2,0,0.4-0.2,0.4-0.4c0-0.3-0.2-0.5-0.5-0.5h-0.6V19L98.2,19z
		 M98.4,17.8h0.2c0.2,0,0.4,0,0.4,0.2c0,0.2-0.2,0.2-0.4,0.2h-0.2V17.8L98.4,17.8z M97.3,18.3c0,0.7,0.6,1.3,1.3,1.3
		c0.7,0,1.3-0.6,1.3-1.3c0-0.7-0.6-1.3-1.3-1.3C97.9,17,97.3,17.6,97.3,18.3 M97.6,18.3c0-0.6,0.5-1.1,1.1-1.1
		c0.6,0,1.1,0.5,1.1,1.1c0,0.6-0.5,1.1-1.1,1.1C98.1,19.4,97.6,18.9,97.6,18.3"/>
	<path fill="#ffffff" d="M18.9,29.8c-0.7,0.8-1.7,2-1.5,2.9c0,0,0,0,0,0c0.2,0.7,1.2,1.2,1.2,1.2l2.2,1.2l-1.4,1.2l1.7,0.5
		c0,0-1.6,1.6-1.7,1.8c-0.4,0.1-0.9,0.1-1.4,0.1c-3.6,0-8.6-2.1-9.8-2.1c-1.5,0-3.4,0.8-3.4,0.8l1-1.1c0,0-1.3,0.3-2.5,0.2L5,35.3
		c-1.5,0-2.9-0.5-3.5-1c0,0,2.8-0.2,6.7-0.2c1.6,0,4.2,0.2,4.2,0.2c-1.3-0.6-2.5-1.3-3-2.6l2.5,0.4c-1-0.6-2.6-2.2-2.8-3.5l2.8,1
		c-0.5-0.5-2.2-2.1-2.5-4l2.2,1.4c-0.6-0.6-2.1-3.6-1.9-4.5l2,1.4c-1-1.2-2.1-4.4-1.3-5.7c0.6,2.4,2,3.3,2,3.3c-0.9-1.3-2.9-6-1-8
		c0.5,4.6,2.5,6.2,2.5,6.2c-1.6-2.6-3.5-10.6,0-12.2c-0.7,5.1,1,7.9,1,7.9c-1-4.7-1-11.4,2.5-12c-1.7,5-0.5,8.9-0.5,8.9
		C16.3,0.5,20.1,0.7,20.1,0.7S19.5,4,19.5,10v17.2C19.5,28.5,19.4,29.2,18.9,29.8L18.9,29.8z M21.2,34c1.5,0.1,2.6,0.2,3.7,0.4
		c0.4,0.1,0.6,0.5,0.6,0.8c-0.5-0.1-1.3-0.2-1.3-0.2l0,0.5c0,0,0.7-0.2,1.5-0.2c0,0,1.6,0,1.5,1.1c-0.4-0.3-1.3-0.2-1.6-0.1
		c-0.8,0.1-1.6,0.5-2.4,1c-0.8,0.4-1.7,0.9-2.7,1.2c0.4-0.4,1.6-1.7,1.6-1.7L20.5,36l1.3-1.1l-2-1.1C20.3,33.9,20.7,33.9,21.2,34"/>
</g>
</svg>
