<svg fill="none" height="30" width="132" xmlns="http://www.w3.org/2000/svg"><path d="M124.798 13.888c0-4.168 1.452-6.175 3.213-7.256C129.254 5.86 131.068 5.5 132 5.5V0c-1.346 0-5.072.565-7.357 3.962h-.103V.772h-5.233v28.502h5.491zm-24.503 11.165c-6.58 0-9.791-5.661-9.791-10.085s3.211-10.035 9.791-10.035c5.491 0 9.895 4.013 9.895 10.035s-4.404 10.085-9.895 10.085zm9.732-20.377h-.094C107.859 1.594 104.284 0 100.295 0c-10.31 0-15.23 7.976-15.23 14.923S89.985 30 100.295 30c3.989 0 7.564-1.594 9.636-4.683h.103v3.957h5.491V.772h-5.491zM69.317 25.06c-5.96 0-9.793-4.992-9.793-10.085 0-5.038 3.782-10.035 9.792-10.035 4.973 0 7.512 3.292 8.34 5.3h5.856C82.629 6.021 77.656 0 69.316 0c-8.91 0-15.231 6.999-15.231 14.82 0 7.255 5.595 15.18 15.231 15.18 8.499 0 13.313-5.866 14.299-10.292h-6.063c-.823 2.007-3.263 5.352-8.237 5.352zm-53.828 0c-5.957 0-10.05-4.992-10.05-10.085C5.44 9.937 9.481 4.94 15.49 4.94c6.008 0 10.05 4.991 10.05 9.983 0 5.352-4.3 10.137-10.05 10.137zm0-25.06C6.58 0 0 6.999 0 14.82 0 22.076 5.853 30 15.49 30c9.74 0 15.488-8.08 15.488-15.077C30.978 6.74 24.193 0 15.49 0zm28.028 11.938c-2.383-.72-5.234-1.646-5.234-4.012 0-1.802 2.074-3.037 4.042-3.037 1.969 0 3.937 1.133 4.25 3.448h5.388C51.598 2.213 46.107 0 42.531 0c-5.956 0-9.634 3.812-9.634 8.232 0 6.175 5.648 7.463 8.86 8.595 2.799.976 5.492 1.853 5.492 4.373 0 2.418-2.022 3.91-4.456 3.91-3.005 0-5.072-1.955-5.284-5.195h-5.493C32.12 27.735 38.752 30 42.586 30c6.319 0 10.05-3.962 10.05-9.11 0-6.689-6.58-8.18-9.118-8.953" fill="#000"/></svg>